<svg xmlns="http://www.w3.org/2000/svg" version="1.1" xmlns:xlink="http://www.w3.org/1999/xlink" width="1500" height="613" viewBox="0 0 1500 613"><g transform="matrix(1,0,0,1,-0.9090909090909918,-0.795060736897824)"><svg viewBox="0 0 396 162" data-background-color="#ffffff" preserveAspectRatio="xMidYMid meet" height="613" width="1500" xmlns="http://www.w3.org/2000/svg" xmlns:xlink="http://www.w3.org/1999/xlink"><g id="tight-bounds" transform="matrix(1,0,0,1,0.2400000000000091,0.21011393046892124)"><svg viewBox="0 0 395.52 161.57977213906216" height="161.57977213906216" width="395.52"><g><svg viewBox="0 0 501.64845250909093 204.93588857790266" height="161.57977213906216" width="395.52"><g><rect width="5.647700993939394" height="200.99999999999997" x="199.39801212121213" y="1.9679442889513439" fill="#085f63" opacity="1" stroke-width="0" stroke="transparent" fill-opacity="1" class="rect-qz-0" data-fill-palette-color="primary" rx="1%" id="qz-0" data-palette-color="#085f63"></rect></g><g transform="matrix(1,0,0,1,219.83027069090912,2.4679442889513297)"><svg viewBox="0 0 281.8181818181818 200" height="200" width="281.8181818181818"><g id="textblocktransform"><svg viewBox="0 0 281.8181818181818 200" height="200" width="281.8181818181818" id="textblock"><g><svg viewBox="0 0 281.8181818181818 200" height="200" width="281.8181818181818"><g transform="matrix(1,0,0,1,0,0)"><svg width="281.8181818181818" viewBox="1.5499999999999998 -38.15 209.25 148.75" height="200" data-palette-color="#085f63"><svg></svg><svg></svg><svg></svg><g class="wordmark-text-0" data-fill-palette-color="primary" id="text-0"><path d="M13.15 0.35v0c-1.567 0-2.967-0.383-4.2-1.15-1.233-0.767-2.117-1.667-2.65-2.7v0 2.2c0 0.333-0.15 0.633-0.45 0.9-0.3 0.267-0.667 0.4-1.1 0.4v0c-0.433 0-0.807-0.133-1.12-0.4-0.32-0.267-0.48-0.567-0.48-0.9v0-35.65c0-0.367 0.16-0.66 0.48-0.88 0.313-0.213 0.687-0.32 1.12-0.32v0c0.467 0 0.86 0.107 1.18 0.32 0.313 0.22 0.47 0.513 0.47 0.88v0 16.8c0.567-0.967 1.41-1.843 2.53-2.63 1.113-0.78 2.487-1.17 4.12-1.17v0c1.633 0 3.127 0.423 4.48 1.27 1.347 0.853 2.43 1.98 3.25 3.38 0.813 1.4 1.22 2.967 1.22 4.7v0 5.45c0 1.633-0.407 3.183-1.22 4.65-0.82 1.467-1.897 2.64-3.23 3.52-1.333 0.887-2.8 1.33-4.4 1.33zM12.55-2.65v0c1.133 0 2.167-0.31 3.1-0.93 0.933-0.613 1.683-1.42 2.25-2.42 0.567-1 0.85-2.05 0.85-3.15v0-5.45c0-1.067-0.283-2.083-0.85-3.05-0.567-0.967-1.317-1.76-2.25-2.38-0.933-0.613-1.983-0.92-3.15-0.92v0c-1 0-1.967 0.257-2.9 0.77-0.933 0.52-1.7 1.247-2.3 2.18-0.6 0.933-0.9 2.067-0.9 3.4v0 7c0 0.5 0.277 1.14 0.83 1.92 0.547 0.787 1.287 1.487 2.22 2.1 0.933 0.62 1.967 0.93 3.1 0.93zM28.9 0v0c-0.433 0-0.807-0.133-1.12-0.4-0.32-0.267-0.48-0.567-0.48-0.9v0-21.15c0-0.367 0.16-0.66 0.48-0.88 0.313-0.213 0.687-0.32 1.12-0.32v0c0.467 0 0.86 0.107 1.18 0.32 0.313 0.22 0.47 0.513 0.47 0.88v0 21.15c0 0.333-0.157 0.633-0.47 0.9-0.32 0.267-0.713 0.4-1.18 0.4zM28.9-30.65v0c-0.6 0-1.117-0.21-1.55-0.63-0.433-0.413-0.65-0.903-0.65-1.47v0c0-0.567 0.217-1.05 0.65-1.45 0.433-0.4 0.95-0.6 1.55-0.6v0c0.633 0 1.16 0.2 1.58 0.6 0.413 0.4 0.62 0.883 0.62 1.45v0c0 0.567-0.207 1.057-0.62 1.47-0.42 0.42-0.947 0.63-1.58 0.63zM45.35 0.35v0c-1.7 0-3.267-0.443-4.7-1.33-1.433-0.88-2.59-2.047-3.47-3.5-0.887-1.447-1.33-3.003-1.33-4.67v0-5.45c0-1.667 0.433-3.21 1.3-4.63 0.867-1.413 2.017-2.553 3.45-3.42 1.433-0.867 3.017-1.3 4.75-1.3v0c1.7 0 3.277 0.423 4.73 1.27 1.447 0.853 2.603 1.98 3.47 3.38 0.867 1.4 1.3 2.967 1.3 4.7v0 5.45c0 1.633-0.433 3.183-1.3 4.65-0.867 1.467-2.023 2.64-3.47 3.52-1.453 0.887-3.03 1.33-4.73 1.33zM45.35-2.65v0c1.167 0 2.217-0.31 3.15-0.93 0.933-0.613 1.683-1.42 2.25-2.42 0.567-1 0.85-2.05 0.85-3.15v0-5.45c0-1.067-0.273-2.083-0.82-3.05-0.553-0.967-1.303-1.76-2.25-2.38-0.953-0.613-2.013-0.92-3.18-0.92v0c-1.167 0-2.217 0.307-3.15 0.92-0.933 0.62-1.683 1.413-2.25 2.38-0.567 0.967-0.85 1.983-0.85 3.05v0 5.45c0 1.1 0.283 2.15 0.85 3.15 0.567 1 1.327 1.807 2.28 2.42 0.947 0.62 1.987 0.93 3.12 0.93zM61.8 0v0c-0.433 0-0.807-0.133-1.12-0.4-0.32-0.267-0.48-0.567-0.48-0.9v0-21.15c0-0.367 0.16-0.66 0.48-0.88 0.313-0.213 0.687-0.32 1.12-0.32v0c0.433 0 0.8 0.107 1.1 0.32 0.3 0.22 0.45 0.513 0.45 0.88v0 2.3c0.567-0.967 1.41-1.843 2.53-2.63 1.113-0.78 2.487-1.17 4.12-1.17v0c1.667 0 3.117 0.467 4.35 1.4 1.233 0.933 2.15 2.133 2.75 3.6v0c0.867-1.7 1.993-2.96 3.38-3.78 1.38-0.813 2.787-1.22 4.22-1.22v0c1.433 0 2.793 0.367 4.08 1.1 1.28 0.733 2.32 1.79 3.12 3.17 0.8 1.387 1.2 3.08 1.2 5.08v0 13.3c0 0.333-0.157 0.633-0.47 0.9-0.32 0.267-0.713 0.4-1.18 0.4v0c-0.433 0-0.807-0.133-1.12-0.4-0.32-0.267-0.48-0.567-0.48-0.9v0-13.3c0-1.4-0.283-2.567-0.85-3.5-0.567-0.933-1.283-1.643-2.15-2.13-0.867-0.48-1.767-0.72-2.7-0.72v0c-0.967 0-1.89 0.25-2.77 0.75-0.887 0.5-1.62 1.21-2.2 2.13-0.587 0.913-0.88 2.003-0.88 3.27v0 13.55c0 0.433-0.173 0.75-0.52 0.95-0.353 0.2-0.73 0.3-1.13 0.3v0c-0.367 0-0.723-0.1-1.07-0.3-0.353-0.2-0.53-0.517-0.53-0.95v0-13.5c0-1.2-0.257-2.267-0.77-3.2-0.52-0.933-1.213-1.667-2.08-2.2-0.867-0.533-1.817-0.8-2.85-0.8v0c-0.967 0-1.9 0.25-2.8 0.75-0.9 0.5-1.64 1.217-2.22 2.15-0.587 0.933-0.88 2.083-0.88 3.45v0 13.3c0 0.333-0.157 0.633-0.47 0.9-0.32 0.267-0.713 0.4-1.18 0.4zM109.05 0.35v0c-2.1 0-3.957-0.4-5.57-1.2-1.62-0.8-2.887-1.907-3.8-3.32-0.92-1.42-1.38-3.08-1.38-4.98v0-5.6c0-1.667 0.433-3.2 1.3-4.6 0.867-1.4 2.027-2.517 3.48-3.35 1.447-0.833 3.037-1.25 4.77-1.25v0c1.667 0 3.21 0.39 4.63 1.17 1.413 0.787 2.553 1.863 3.42 3.23 0.867 1.367 1.3 2.933 1.3 4.7v0c0 1.3-0.217 2.223-0.65 2.77-0.433 0.553-0.973 0.897-1.62 1.03-0.653 0.133-1.347 0.2-2.08 0.2v0h-11.3v1.85c0 2 0.717 3.583 2.15 4.75 1.433 1.167 3.25 1.75 5.45 1.75v0c1.333 0 2.367-0.167 3.1-0.5 0.733-0.333 1.31-0.667 1.73-1 0.413-0.333 0.803-0.5 1.17-0.5v0c0.267 0 0.51 0.09 0.73 0.27 0.213 0.187 0.38 0.397 0.5 0.63 0.113 0.233 0.17 0.45 0.17 0.65v0c0 0.367-0.3 0.817-0.9 1.35-0.6 0.533-1.467 0.99-2.6 1.37-1.133 0.387-2.467 0.58-4 0.58zM101.55-15.15v1.9h10c1 0 1.667-0.11 2-0.33 0.333-0.213 0.5-0.67 0.5-1.37v0c0-1.067-0.257-2.083-0.77-3.05-0.52-0.967-1.253-1.75-2.2-2.35-0.953-0.6-2.047-0.9-3.28-0.9v0c-1.133 0-2.173 0.273-3.12 0.82-0.953 0.553-1.713 1.287-2.28 2.2-0.567 0.92-0.85 1.947-0.85 3.08zM131.3 0h-1.4c-2.567 0-4.533-0.583-5.9-1.75-1.367-1.167-2.05-3.033-2.05-5.6v0-26.35c0-0.367 0.177-0.66 0.53-0.88 0.347-0.213 0.703-0.32 1.07-0.32v0c0.433 0 0.817 0.107 1.15 0.32 0.333 0.22 0.5 0.513 0.5 0.88v0 10.05h6.5c0.333 0 0.6 0.133 0.8 0.4 0.2 0.267 0.3 0.583 0.3 0.95v0c0 0.367-0.1 0.683-0.3 0.95-0.2 0.267-0.467 0.4-0.8 0.4v0h-6.5v13.6c0 1.633 0.35 2.773 1.05 3.42 0.7 0.653 1.917 0.98 3.65 0.98v0h1.4c0.467 0 0.827 0.14 1.08 0.42 0.247 0.287 0.37 0.63 0.37 1.03v0c0 0.4-0.123 0.75-0.37 1.05-0.253 0.3-0.613 0.45-1.08 0.45zM138.4 0v0c-0.433 0-0.807-0.133-1.12-0.4-0.32-0.267-0.48-0.567-0.48-0.9v0-21.15c0-0.367 0.16-0.66 0.48-0.88 0.313-0.213 0.687-0.32 1.12-0.32v0c0.433 0 0.8 0.107 1.1 0.32 0.3 0.22 0.45 0.513 0.45 0.88v0 2.45c0.367-0.667 0.867-1.3 1.5-1.9 0.633-0.6 1.383-1.093 2.25-1.48 0.867-0.38 1.85-0.57 2.95-0.57v0h1.75c0.367 0 0.677 0.14 0.93 0.42 0.247 0.287 0.37 0.647 0.37 1.08v0c0 0.4-0.123 0.75-0.37 1.05-0.253 0.3-0.563 0.45-0.93 0.45v0h-1.75c-1.1 0-2.157 0.29-3.17 0.87-1.02 0.587-1.847 1.423-2.48 2.51-0.633 1.08-0.95 2.387-0.95 3.92v0 12.35c0 0.333-0.157 0.633-0.47 0.9-0.32 0.267-0.713 0.4-1.18 0.4zM154.9 0v0c-0.433 0-0.807-0.133-1.12-0.4-0.32-0.267-0.48-0.567-0.48-0.9v0-21.15c0-0.367 0.16-0.66 0.48-0.88 0.313-0.213 0.687-0.32 1.12-0.32v0c0.467 0 0.86 0.107 1.18 0.32 0.313 0.22 0.47 0.513 0.47 0.88v0 21.15c0 0.333-0.157 0.633-0.47 0.9-0.32 0.267-0.713 0.4-1.18 0.4zM154.9-30.65v0c-0.6 0-1.117-0.21-1.55-0.63-0.433-0.413-0.65-0.903-0.65-1.47v0c0-0.567 0.217-1.05 0.65-1.45 0.433-0.4 0.95-0.6 1.55-0.6v0c0.633 0 1.16 0.2 1.58 0.6 0.413 0.4 0.62 0.883 0.62 1.45v0c0 0.567-0.207 1.057-0.62 1.47-0.42 0.42-0.947 0.63-1.58 0.63zM171.65 0.35v0c-2.2 0-4.017-0.417-5.45-1.25-1.433-0.833-2.5-1.967-3.2-3.4-0.7-1.433-1.05-3.05-1.05-4.85v0-5.35c0-1.767 0.34-3.367 1.02-4.8 0.687-1.433 1.757-2.567 3.21-3.4 1.447-0.833 3.27-1.25 5.47-1.25v0c1.4 0 2.627 0.173 3.68 0.52 1.047 0.353 1.863 0.78 2.45 1.28 0.58 0.5 0.87 0.983 0.87 1.45v0c0 0.2-0.06 0.423-0.18 0.67-0.113 0.253-0.28 0.47-0.5 0.65-0.213 0.187-0.453 0.28-0.72 0.28v0c-0.3 0-0.643-0.16-1.03-0.48-0.38-0.313-0.903-0.62-1.57-0.92-0.667-0.3-1.617-0.45-2.85-0.45v0c-2.167 0-3.807 0.573-4.92 1.72-1.12 1.153-1.68 2.73-1.68 4.73v0 5.35c0 2.033 0.56 3.623 1.68 4.77 1.113 1.153 2.77 1.73 4.97 1.73v0c1.267 0 2.25-0.16 2.95-0.48 0.7-0.313 1.243-0.63 1.63-0.95 0.38-0.313 0.737-0.47 1.07-0.47v0c0.3 0 0.56 0.083 0.78 0.25 0.213 0.167 0.38 0.367 0.5 0.6 0.113 0.233 0.17 0.483 0.17 0.75v0c0 0.433-0.3 0.907-0.9 1.42-0.6 0.52-1.44 0.963-2.52 1.33-1.087 0.367-2.38 0.55-3.88 0.55z" fill="#085f63" fill-rule="nonzero" stroke="none" stroke-width="1" stroke-linecap="butt" stroke-linejoin="miter" stroke-miterlimit="10" stroke-dasharray="" stroke-dashoffset="0" font-family="none" font-weight="none" font-size="none" text-anchor="none" style="mix-blend-mode: normal" data-fill-palette-color="primary" opacity="1"></path><path transform="translate(0,49.5)" d="M8.35 0.35v0c-1.867 0-3.467-0.543-4.8-1.63-1.333-1.08-2-2.737-2-4.97v0c0-1.833 0.493-3.243 1.48-4.23 0.98-0.98 2.347-1.663 4.1-2.05 1.747-0.38 3.77-0.57 6.07-0.57v0h2.55v-1.2c0-1.067-0.19-2.127-0.57-3.18-0.387-1.047-1.003-1.913-1.85-2.6-0.853-0.68-2.013-1.02-3.48-1.02v0c-1.1 0-2 0.117-2.7 0.35-0.7 0.233-1.25 0.473-1.65 0.72-0.4 0.253-0.733 0.38-1 0.38v0c-0.4 0-0.717-0.2-0.95-0.6-0.233-0.4-0.35-0.783-0.35-1.15v0c0-0.433 0.343-0.843 1.03-1.23 0.68-0.38 1.547-0.697 2.6-0.95 1.047-0.247 2.087-0.37 3.12-0.37v0c2.233 0 4.01 0.457 5.33 1.37 1.313 0.92 2.263 2.113 2.85 3.58 0.58 1.467 0.87 3.033 0.87 4.7v0 13c0 0.367-0.143 0.673-0.43 0.92-0.28 0.253-0.67 0.38-1.17 0.38v0c-0.4 0-0.75-0.127-1.05-0.38-0.3-0.247-0.45-0.553-0.45-0.92v0-2.2c-0.867 0.967-1.917 1.85-3.15 2.65-1.233 0.8-2.7 1.2-4.4 1.2zM9.15-2.4v0c1.1 0 2.15-0.283 3.15-0.85 1-0.567 1.827-1.26 2.48-2.08 0.647-0.813 0.97-1.587 0.97-2.32v0-3.2h-2.1c-1.5 0-2.923 0.09-4.27 0.27-1.353 0.187-2.453 0.58-3.3 1.18-0.853 0.6-1.28 1.55-1.28 2.85v0c0 1.433 0.427 2.483 1.28 3.15 0.847 0.667 1.87 1 3.07 1zM34.25 0h-1.4c-2.567 0-4.533-0.583-5.9-1.75-1.367-1.167-2.05-3.033-2.05-5.6v0-26.35c0-0.367 0.177-0.66 0.53-0.88 0.347-0.213 0.703-0.32 1.07-0.32v0c0.433 0 0.817 0.107 1.15 0.32 0.333 0.22 0.5 0.513 0.5 0.88v0 10.05h6.5c0.333 0 0.6 0.133 0.8 0.4 0.2 0.267 0.3 0.583 0.3 0.95v0c0 0.367-0.1 0.683-0.3 0.95-0.2 0.267-0.467 0.4-0.8 0.4v0h-6.5v13.6c0 1.633 0.35 2.773 1.05 3.42 0.7 0.653 1.917 0.98 3.65 0.98v0h1.4c0.467 0 0.827 0.14 1.08 0.42 0.247 0.287 0.37 0.63 0.37 1.03v0c0 0.4-0.123 0.75-0.37 1.05-0.253 0.3-0.613 0.45-1.08 0.45zM49 0h-1.4c-2.567 0-4.533-0.583-5.9-1.75-1.367-1.167-2.05-3.033-2.05-5.6v0-26.35c0-0.367 0.177-0.66 0.53-0.88 0.347-0.213 0.703-0.32 1.07-0.32v0c0.433 0 0.817 0.107 1.15 0.32 0.333 0.22 0.5 0.513 0.5 0.88v0 10.05h6.5c0.333 0 0.6 0.133 0.8 0.4 0.2 0.267 0.3 0.583 0.3 0.95v0c0 0.367-0.1 0.683-0.3 0.95-0.2 0.267-0.467 0.4-0.8 0.4v0h-6.5v13.6c0 1.633 0.35 2.773 1.05 3.42 0.7 0.653 1.917 0.98 3.65 0.98v0h1.4c0.467 0 0.827 0.14 1.08 0.42 0.247 0.287 0.37 0.63 0.37 1.03v0c0 0.4-0.123 0.75-0.37 1.05-0.253 0.3-0.613 0.45-1.08 0.45zM63.95 0.35v0c-2.1 0-3.957-0.4-5.57-1.2-1.62-0.8-2.887-1.907-3.8-3.32-0.92-1.42-1.38-3.08-1.38-4.98v0-5.6c0-1.667 0.433-3.2 1.3-4.6 0.867-1.4 2.027-2.517 3.48-3.35 1.447-0.833 3.037-1.25 4.77-1.25v0c1.667 0 3.21 0.39 4.63 1.17 1.413 0.787 2.553 1.863 3.42 3.23 0.867 1.367 1.3 2.933 1.3 4.7v0c0 1.3-0.217 2.223-0.65 2.77-0.433 0.553-0.973 0.897-1.62 1.03-0.653 0.133-1.347 0.2-2.08 0.2v0h-11.3v1.85c0 2 0.717 3.583 2.15 4.75 1.433 1.167 3.25 1.75 5.45 1.75v0c1.333 0 2.367-0.167 3.1-0.5 0.733-0.333 1.31-0.667 1.73-1 0.413-0.333 0.803-0.5 1.17-0.5v0c0.267 0 0.51 0.09 0.73 0.27 0.213 0.187 0.38 0.397 0.5 0.63 0.113 0.233 0.17 0.45 0.17 0.65v0c0 0.367-0.3 0.817-0.9 1.35-0.6 0.533-1.467 0.99-2.6 1.37-1.133 0.387-2.467 0.58-4 0.58zM56.45-15.15v1.9h10c1 0 1.667-0.11 2-0.33 0.333-0.213 0.5-0.67 0.5-1.37v0c0-1.067-0.257-2.083-0.77-3.05-0.52-0.967-1.253-1.75-2.2-2.35-0.953-0.6-2.047-0.9-3.28-0.9v0c-1.133 0-2.173 0.273-3.12 0.82-0.953 0.553-1.713 1.287-2.28 2.2-0.567 0.92-0.85 1.947-0.85 3.08zM78.55 0v0c-0.433 0-0.807-0.133-1.12-0.4-0.32-0.267-0.48-0.567-0.48-0.9v0-21.15c0-0.367 0.16-0.66 0.48-0.88 0.313-0.213 0.687-0.32 1.12-0.32v0c0.433 0 0.8 0.107 1.1 0.32 0.3 0.22 0.45 0.513 0.45 0.88v0 2.3c0.533-0.967 1.367-1.843 2.5-2.63 1.133-0.78 2.533-1.17 4.2-1.17v0c1.6 0 3.077 0.423 4.43 1.27 1.347 0.853 2.42 1.98 3.22 3.38 0.8 1.4 1.2 2.967 1.2 4.7v0 13.3c0 0.433-0.167 0.757-0.5 0.97-0.333 0.22-0.717 0.33-1.15 0.33v0c-0.367 0-0.723-0.11-1.07-0.33-0.353-0.213-0.53-0.537-0.53-0.97v0-13.3c0-1.067-0.283-2.083-0.85-3.05-0.567-0.967-1.317-1.76-2.25-2.38-0.933-0.613-1.967-0.92-3.1-0.92v0c-1 0-1.957 0.257-2.87 0.77-0.92 0.52-1.67 1.247-2.25 2.18-0.587 0.933-0.88 2.067-0.88 3.4v0 13.3c0 0.333-0.157 0.633-0.47 0.9-0.32 0.267-0.713 0.4-1.18 0.4zM109.65 0.35v0c-1.567 0-3.033-0.443-4.4-1.33-1.367-0.88-2.45-2.053-3.25-3.52-0.8-1.467-1.2-3.017-1.2-4.65v0-5.45c0-1.733 0.4-3.3 1.2-4.7 0.8-1.4 1.883-2.527 3.25-3.38 1.367-0.847 2.867-1.27 4.5-1.27v0c1.633 0 3.01 0.39 4.13 1.17 1.113 0.787 1.937 1.663 2.47 2.63v0-16.8c0-0.367 0.167-0.66 0.5-0.88 0.333-0.213 0.717-0.32 1.15-0.32v0c0.5 0 0.893 0.107 1.18 0.32 0.28 0.22 0.42 0.513 0.42 0.88v0 35.65c0 0.333-0.14 0.633-0.42 0.9-0.287 0.267-0.68 0.4-1.18 0.4v0c-0.4 0-0.75-0.133-1.05-0.4-0.3-0.267-0.45-0.567-0.45-0.9v0-2.2c-0.533 1.033-1.423 1.933-2.67 2.7-1.253 0.767-2.647 1.15-4.18 1.15zM110.2-2.65v0c1.2 0 2.26-0.31 3.18-0.93 0.913-0.613 1.637-1.313 2.17-2.1 0.533-0.78 0.8-1.42 0.8-1.92v0-7c0-1.333-0.3-2.467-0.9-3.4-0.6-0.933-1.367-1.66-2.3-2.18-0.933-0.513-1.9-0.77-2.9-0.77v0c-1.133 0-2.167 0.307-3.1 0.92-0.933 0.62-1.683 1.413-2.25 2.38-0.567 0.967-0.85 1.983-0.85 3.05v0 5.45c0 1.1 0.283 2.15 0.85 3.15 0.567 1 1.317 1.807 2.25 2.42 0.933 0.62 1.95 0.93 3.05 0.93zM131.1 0.35v0c-1.867 0-3.467-0.543-4.8-1.63-1.333-1.08-2-2.737-2-4.97v0c0-1.833 0.493-3.243 1.48-4.23 0.98-0.98 2.347-1.663 4.1-2.05 1.747-0.38 3.77-0.57 6.07-0.57v0h2.55v-1.2c0-1.067-0.19-2.127-0.57-3.18-0.387-1.047-1.003-1.913-1.85-2.6-0.853-0.68-2.013-1.02-3.48-1.02v0c-1.1 0-2 0.117-2.7 0.35-0.7 0.233-1.25 0.473-1.65 0.72-0.4 0.253-0.733 0.38-1 0.38v0c-0.4 0-0.717-0.2-0.95-0.6-0.233-0.4-0.35-0.783-0.35-1.15v0c0-0.433 0.343-0.843 1.03-1.23 0.68-0.38 1.547-0.697 2.6-0.95 1.047-0.247 2.087-0.37 3.12-0.37v0c2.233 0 4.01 0.457 5.33 1.37 1.313 0.92 2.263 2.113 2.85 3.58 0.58 1.467 0.87 3.033 0.87 4.7v0 13c0 0.367-0.14 0.673-0.42 0.92-0.287 0.253-0.68 0.38-1.18 0.38v0c-0.4 0-0.75-0.127-1.05-0.38-0.3-0.247-0.45-0.553-0.45-0.92v0-2.2c-0.867 0.967-1.917 1.85-3.15 2.65-1.233 0.8-2.7 1.2-4.4 1.2zM131.9-2.4v0c1.1 0 2.15-0.283 3.15-0.85 1-0.567 1.827-1.26 2.48-2.08 0.647-0.813 0.97-1.587 0.97-2.32v0-3.2h-2.1c-1.5 0-2.923 0.09-4.27 0.27-1.353 0.187-2.453 0.58-3.3 1.18-0.853 0.6-1.28 1.55-1.28 2.85v0c0 1.433 0.427 2.483 1.28 3.15 0.847 0.667 1.87 1 3.07 1zM149.35 0v0c-0.433 0-0.81-0.133-1.13-0.4-0.313-0.267-0.47-0.567-0.47-0.9v0-21.15c0-0.367 0.157-0.66 0.47-0.88 0.32-0.213 0.697-0.32 1.13-0.32v0c0.433 0 0.8 0.107 1.1 0.32 0.3 0.22 0.45 0.513 0.45 0.88v0 2.3c0.533-0.967 1.367-1.843 2.5-2.63 1.133-0.78 2.533-1.17 4.2-1.17v0c1.6 0 3.077 0.423 4.43 1.27 1.347 0.853 2.42 1.98 3.22 3.38 0.8 1.4 1.2 2.967 1.2 4.7v0 13.3c0 0.433-0.167 0.757-0.5 0.97-0.333 0.22-0.717 0.33-1.15 0.33v0c-0.367 0-0.727-0.11-1.08-0.33-0.347-0.213-0.52-0.537-0.52-0.97v0-13.3c0-1.067-0.283-2.083-0.85-3.05-0.567-0.967-1.317-1.76-2.25-2.38-0.933-0.613-1.967-0.92-3.1-0.92v0c-1 0-1.957 0.257-2.87 0.77-0.92 0.52-1.67 1.247-2.25 2.18-0.587 0.933-0.88 2.067-0.88 3.4v0 13.3c0 0.333-0.157 0.633-0.47 0.9-0.32 0.267-0.713 0.4-1.18 0.4zM181.35 0.35v0c-2.2 0-4.017-0.417-5.45-1.25-1.433-0.833-2.5-1.967-3.2-3.4-0.7-1.433-1.05-3.05-1.05-4.85v0-5.35c0-1.767 0.343-3.367 1.03-4.8 0.68-1.433 1.747-2.567 3.2-3.4 1.447-0.833 3.27-1.25 5.47-1.25v0c1.4 0 2.627 0.173 3.68 0.52 1.047 0.353 1.863 0.78 2.45 1.28 0.58 0.5 0.87 0.983 0.87 1.45v0c0 0.2-0.057 0.423-0.17 0.67-0.12 0.253-0.287 0.47-0.5 0.65-0.22 0.187-0.463 0.28-0.73 0.28v0c-0.3 0-0.64-0.16-1.02-0.48-0.387-0.313-0.913-0.62-1.58-0.92-0.667-0.3-1.617-0.45-2.85-0.45v0c-2.167 0-3.807 0.573-4.92 1.72-1.12 1.153-1.68 2.73-1.68 4.73v0 5.35c0 2.033 0.56 3.623 1.68 4.77 1.113 1.153 2.77 1.73 4.97 1.73v0c1.267 0 2.25-0.16 2.95-0.48 0.7-0.313 1.243-0.63 1.63-0.95 0.38-0.313 0.737-0.47 1.07-0.47v0c0.3 0 0.56 0.083 0.78 0.25 0.213 0.167 0.38 0.367 0.5 0.6 0.113 0.233 0.17 0.483 0.17 0.75v0c0 0.433-0.3 0.907-0.9 1.42-0.6 0.52-1.44 0.963-2.52 1.33-1.087 0.367-2.38 0.55-3.88 0.55zM202.65 0.35v0c-2.1 0-3.957-0.4-5.57-1.2-1.62-0.8-2.887-1.907-3.8-3.32-0.92-1.42-1.38-3.08-1.38-4.98v0-5.6c0-1.667 0.433-3.2 1.3-4.6 0.867-1.4 2.027-2.517 3.48-3.35 1.447-0.833 3.037-1.25 4.77-1.25v0c1.667 0 3.21 0.39 4.63 1.17 1.413 0.787 2.553 1.863 3.42 3.23 0.867 1.367 1.3 2.933 1.3 4.7v0c0 1.3-0.217 2.223-0.65 2.77-0.433 0.553-0.973 0.897-1.62 1.03-0.653 0.133-1.347 0.2-2.08 0.2v0h-11.3v1.85c0 2 0.717 3.583 2.15 4.75 1.433 1.167 3.25 1.75 5.45 1.75v0c1.333 0 2.367-0.167 3.1-0.5 0.733-0.333 1.31-0.667 1.73-1 0.413-0.333 0.803-0.5 1.17-0.5v0c0.267 0 0.51 0.09 0.73 0.27 0.213 0.187 0.38 0.397 0.5 0.63 0.113 0.233 0.17 0.45 0.17 0.65v0c0 0.367-0.3 0.817-0.9 1.35-0.6 0.533-1.467 0.99-2.6 1.37-1.133 0.387-2.467 0.58-4 0.58zM195.15-15.15v1.9h10c1 0 1.667-0.11 2-0.33 0.333-0.213 0.5-0.67 0.5-1.37v0c0-1.067-0.257-2.083-0.77-3.05-0.52-0.967-1.253-1.75-2.2-2.35-0.953-0.6-2.047-0.9-3.28-0.9v0c-1.133 0-2.173 0.273-3.12 0.82-0.953 0.553-1.713 1.287-2.28 2.2-0.567 0.92-0.85 1.947-0.85 3.08z" fill="#085f63" fill-rule="nonzero" stroke="none" stroke-width="1" stroke-linecap="butt" stroke-linejoin="miter" stroke-miterlimit="10" stroke-dasharray="" stroke-dashoffset="0" font-family="none" font-weight="none" font-size="none" text-anchor="none" style="mix-blend-mode: normal" data-fill-palette-color="primary" opacity="1"></path><path transform="translate(0,99)" d="M9.55 0.35v0c-1.567 0-2.933-0.2-4.1-0.6-1.167-0.4-2.083-0.877-2.75-1.43-0.667-0.547-1-1.07-1-1.57v0c0-0.233 0.05-0.46 0.15-0.68 0.1-0.213 0.24-0.403 0.42-0.57 0.187-0.167 0.38-0.25 0.58-0.25v0c0.367 0 0.777 0.193 1.23 0.58 0.447 0.38 1.08 0.77 1.9 1.17 0.813 0.4 1.97 0.6 3.47 0.6v0c1.9 0 3.233-0.36 4-1.08 0.767-0.713 1.15-1.537 1.15-2.47v0c0-1.1-0.29-1.96-0.87-2.58-0.587-0.613-1.353-1.097-2.3-1.45-0.953-0.347-1.953-0.663-3-0.95-1.053-0.28-2.053-0.647-3-1.1-0.953-0.447-1.72-1.07-2.3-1.87-0.587-0.8-0.88-1.883-0.88-3.25v0c0-1.067 0.267-2.127 0.8-3.18 0.533-1.047 1.377-1.913 2.53-2.6 1.147-0.68 2.67-1.02 4.57-1.02v0c1.1 0 2.167 0.117 3.2 0.35 1.033 0.233 1.877 0.54 2.53 0.92 0.647 0.387 0.97 0.78 0.97 1.18v0c0 0.167-0.057 0.383-0.17 0.65-0.12 0.267-0.28 0.507-0.48 0.72-0.2 0.22-0.433 0.33-0.7 0.33v0c-0.267 0-0.623-0.127-1.07-0.38-0.453-0.247-1.03-0.48-1.73-0.7-0.7-0.213-1.533-0.32-2.5-0.32v0c-1.2 0-2.167 0.217-2.9 0.65-0.733 0.433-1.267 0.94-1.6 1.52-0.333 0.587-0.5 1.163-0.5 1.73v0c0 0.967 0.3 1.7 0.9 2.2 0.6 0.5 1.377 0.907 2.33 1.22 0.947 0.32 1.947 0.62 3 0.9 1.047 0.287 2.047 0.68 3 1.18 0.947 0.5 1.713 1.2 2.3 2.1 0.58 0.9 0.87 2.1 0.87 3.6v0c0 1.967-0.7 3.533-2.1 4.7-1.4 1.167-3.383 1.75-5.95 1.75zM21.6 11.6v0c-0.433 0-0.79-0.107-1.07-0.32-0.287-0.22-0.43-0.597-0.43-1.13v0c0-0.4 0.077-0.75 0.23-1.05 0.147-0.3 0.403-0.45 0.77-0.45v0c0.8 0 1.567-0.25 2.3-0.75 0.733-0.5 1.417-1.207 2.05-2.12 0.633-0.92 1.2-1.953 1.7-3.1 0.5-1.153 0.9-2.38 1.2-3.68v0l-8.15-20.95c-0.1-0.167-0.15-0.317-0.15-0.45v0c0-0.3 0.11-0.567 0.33-0.8 0.213-0.233 0.48-0.417 0.8-0.55 0.313-0.133 0.603-0.2 0.87-0.2v0c0.267 0 0.51 0.057 0.73 0.17 0.213 0.12 0.353 0.297 0.42 0.53v0l6.85 18.4 6.45-18.4c0.1-0.233 0.25-0.41 0.45-0.53 0.2-0.113 0.417-0.17 0.65-0.17v0c0.267 0 0.56 0.067 0.88 0.2 0.313 0.133 0.58 0.317 0.8 0.55 0.213 0.233 0.32 0.517 0.32 0.85v0c0 0.167-0.033 0.3-0.1 0.4v0l-7.75 21c-0.5 1.333-1.033 2.733-1.6 4.2-0.567 1.467-1.223 2.827-1.97 4.08-0.753 1.247-1.663 2.27-2.73 3.07-1.067 0.8-2.35 1.2-3.85 1.2zM49.9 0.35v0c-1.567 0-2.933-0.2-4.1-0.6-1.167-0.4-2.083-0.877-2.75-1.43-0.667-0.547-1-1.07-1-1.57v0c0-0.233 0.05-0.46 0.15-0.68 0.1-0.213 0.243-0.403 0.43-0.57 0.18-0.167 0.37-0.25 0.57-0.25v0c0.367 0 0.777 0.193 1.23 0.58 0.447 0.38 1.08 0.77 1.9 1.17 0.813 0.4 1.97 0.6 3.47 0.6v0c1.9 0 3.233-0.36 4-1.08 0.767-0.713 1.15-1.537 1.15-2.47v0c0-1.1-0.29-1.96-0.87-2.58-0.587-0.613-1.353-1.097-2.3-1.45-0.953-0.347-1.953-0.663-3-0.95-1.053-0.28-2.053-0.647-3-1.1-0.953-0.447-1.72-1.07-2.3-1.87-0.587-0.8-0.88-1.883-0.88-3.25v0c0-1.067 0.267-2.127 0.8-3.18 0.533-1.047 1.377-1.913 2.53-2.6 1.147-0.68 2.67-1.02 4.57-1.02v0c1.1 0 2.167 0.117 3.2 0.35 1.033 0.233 1.877 0.54 2.53 0.92 0.647 0.387 0.97 0.78 0.97 1.18v0c0 0.167-0.057 0.383-0.17 0.65-0.12 0.267-0.28 0.507-0.48 0.72-0.2 0.22-0.433 0.33-0.7 0.33v0c-0.267 0-0.623-0.127-1.07-0.38-0.453-0.247-1.03-0.48-1.73-0.7-0.7-0.213-1.533-0.32-2.5-0.32v0c-1.2 0-2.167 0.217-2.9 0.65-0.733 0.433-1.267 0.94-1.6 1.52-0.333 0.587-0.5 1.163-0.5 1.73v0c0 0.967 0.3 1.7 0.9 2.2 0.6 0.5 1.377 0.907 2.33 1.22 0.947 0.32 1.947 0.62 3 0.9 1.047 0.287 2.047 0.68 3 1.18 0.947 0.5 1.713 1.2 2.3 2.1 0.58 0.9 0.87 2.1 0.87 3.6v0c0 1.967-0.7 3.533-2.1 4.7-1.4 1.167-3.383 1.75-5.95 1.75zM72.05 0h-1.4c-2.567 0-4.533-0.583-5.9-1.75-1.367-1.167-2.05-3.033-2.05-5.6v0-26.35c0-0.367 0.177-0.66 0.53-0.88 0.347-0.213 0.703-0.32 1.07-0.32v0c0.433 0 0.817 0.107 1.15 0.32 0.333 0.22 0.5 0.513 0.5 0.88v0 10.05h6.5c0.333 0 0.6 0.133 0.8 0.4 0.2 0.267 0.3 0.583 0.3 0.95v0c0 0.367-0.1 0.683-0.3 0.95-0.2 0.267-0.467 0.4-0.8 0.4v0h-6.5v13.6c0 1.633 0.35 2.773 1.05 3.42 0.7 0.653 1.917 0.98 3.65 0.98v0h1.4c0.467 0 0.827 0.14 1.08 0.42 0.247 0.287 0.37 0.63 0.37 1.03v0c0 0.4-0.123 0.75-0.37 1.05-0.253 0.3-0.613 0.45-1.08 0.45zM87 0.35v0c-2.1 0-3.96-0.4-5.58-1.2-1.613-0.8-2.877-1.907-3.79-3.32-0.92-1.42-1.38-3.08-1.38-4.98v0-5.6c0-1.667 0.433-3.2 1.3-4.6 0.867-1.4 2.027-2.517 3.48-3.35 1.447-0.833 3.037-1.25 4.77-1.25v0c1.667 0 3.207 0.39 4.62 1.17 1.42 0.787 2.563 1.863 3.43 3.23 0.867 1.367 1.3 2.933 1.3 4.7v0c0 1.3-0.217 2.223-0.65 2.77-0.433 0.553-0.973 0.897-1.62 1.03-0.653 0.133-1.347 0.2-2.08 0.2v0h-11.3v1.85c0 2 0.717 3.583 2.15 4.75 1.433 1.167 3.25 1.75 5.45 1.75v0c1.333 0 2.367-0.167 3.1-0.5 0.733-0.333 1.307-0.667 1.72-1 0.42-0.333 0.813-0.5 1.18-0.5v0c0.267 0 0.51 0.09 0.73 0.27 0.213 0.187 0.38 0.397 0.5 0.63 0.113 0.233 0.17 0.45 0.17 0.65v0c0 0.367-0.3 0.817-0.9 1.35-0.6 0.533-1.467 0.99-2.6 1.37-1.133 0.387-2.467 0.58-4 0.58zM79.5-15.15v1.9h10c1 0 1.667-0.11 2-0.33 0.333-0.213 0.5-0.67 0.5-1.37v0c0-1.067-0.26-2.083-0.78-3.05-0.513-0.967-1.243-1.75-2.19-2.35-0.953-0.6-2.047-0.9-3.28-0.9v0c-1.133 0-2.173 0.273-3.12 0.82-0.953 0.553-1.713 1.287-2.28 2.2-0.567 0.92-0.85 1.947-0.85 3.08zM101.6 0v0c-0.433 0-0.807-0.133-1.12-0.4-0.32-0.267-0.48-0.567-0.48-0.9v0-21.15c0-0.367 0.16-0.66 0.48-0.88 0.313-0.213 0.687-0.32 1.12-0.32v0c0.433 0 0.8 0.107 1.1 0.32 0.3 0.22 0.45 0.513 0.45 0.88v0 2.3c0.567-0.967 1.41-1.843 2.53-2.63 1.113-0.78 2.487-1.17 4.12-1.17v0c1.667 0 3.117 0.467 4.35 1.4 1.233 0.933 2.15 2.133 2.75 3.6v0c0.867-1.7 1.993-2.96 3.38-3.78 1.38-0.813 2.787-1.22 4.22-1.22v0c1.433 0 2.793 0.367 4.08 1.1 1.28 0.733 2.32 1.79 3.12 3.17 0.8 1.387 1.2 3.08 1.2 5.08v0 13.3c0 0.333-0.157 0.633-0.47 0.9-0.32 0.267-0.713 0.4-1.18 0.4v0c-0.433 0-0.807-0.133-1.12-0.4-0.32-0.267-0.48-0.567-0.48-0.9v0-13.3c0-1.4-0.283-2.567-0.85-3.5-0.567-0.933-1.283-1.643-2.15-2.13-0.867-0.48-1.767-0.72-2.7-0.72v0c-0.967 0-1.89 0.25-2.77 0.75-0.887 0.5-1.62 1.21-2.2 2.13-0.587 0.913-0.88 2.003-0.88 3.27v0 13.55c0 0.433-0.173 0.75-0.52 0.95-0.353 0.2-0.73 0.3-1.13 0.3v0c-0.367 0-0.723-0.1-1.07-0.3-0.353-0.2-0.53-0.517-0.53-0.95v0-13.5c0-1.2-0.257-2.267-0.77-3.2-0.52-0.933-1.213-1.667-2.08-2.2-0.867-0.533-1.817-0.8-2.85-0.8v0c-0.967 0-1.9 0.25-2.8 0.75-0.9 0.5-1.64 1.217-2.22 2.15-0.587 0.933-0.88 2.083-0.88 3.45v0 13.3c0 0.333-0.157 0.633-0.47 0.9-0.32 0.267-0.713 0.4-1.18 0.4z" fill="#085f63" fill-rule="nonzero" stroke="none" stroke-width="1" stroke-linecap="butt" stroke-linejoin="miter" stroke-miterlimit="10" stroke-dasharray="" stroke-dashoffset="0" font-family="none" font-weight="none" font-size="none" text-anchor="none" style="mix-blend-mode: normal" data-fill-palette-color="primary" opacity="1"></path></g></svg></g></svg></g></svg></g></svg></g><g><svg viewBox="0 0 184.61345454545454 204.93588857790266" height="204.93588857790266" width="184.61345454545454"><g><svg xmlns="http://www.w3.org/2000/svg" xmlns:xlink="http://www.w3.org/1999/xlink" version="1.1" x="0" y="0" viewBox="42.346000000000004 36.001000000000005 115.30599999999998 127.99900000000002" style="enable-background:new 0 0 200 200;" xml:space="preserve" height="204.93588857790266" width="184.61345454545454" class="icon-icon-0" data-fill-palette-color="accent" id="icon-0"><g fill="#49beb7" data-fill-palette-color="accent"><path d="M94.532 112.865c-0.539-0.227-1.052-0.496-1.554-0.785-1.057-0.609-2.037-1.341-2.912-2.212-1.289-1.284-2.301-2.777-3.006-4.44-0.729-1.717-1.1-3.543-1.1-5.428s0.37-3.711 1.101-5.43c0.704-1.661 1.716-3.154 3.005-4.438 0.876-0.872 1.855-1.605 2.912-2.213 0.501-0.289 1.014-0.558 1.552-0.784 2.035-0.856 2.992-3.202 2.135-5.238-0.855-2.036-3.199-2.995-5.238-2.135-2.624 1.104-4.98 2.686-7.005 4.702-2.025 2.017-3.615 4.365-4.725 6.98-1.152 2.712-1.736 5.591-1.736 8.556s0.584 5.844 1.735 8.555c1.11 2.616 2.7 4.965 4.726 6.981 2.022 2.014 4.379 3.596 7.004 4.702 0.507 0.213 1.033 0.314 1.551 0.314 1.562 0 3.044-0.919 3.688-2.448C97.522 116.068 96.567 113.723 94.532 112.865z" fill="#49beb7" data-fill-palette-color="accent"></path><path d="M115.579 84.465c-2.021-2.015-4.379-3.598-7.008-4.703-2.031-0.856-4.381 0.1-5.238 2.135-0.855 2.036 0.1 4.382 2.137 5.238 0.538 0.226 1.051 0.495 1.552 0.784 1.057 0.608 2.037 1.342 2.911 2.214 1.289 1.282 2.301 2.776 3.008 4.438 0.729 1.717 1.098 3.544 1.098 5.43s-0.369 3.713-1.098 5.427c-0.707 1.664-1.719 3.158-3.01 4.442-0.872 0.87-1.851 1.603-2.909 2.212-0.501 0.288-1.015 0.558-1.554 0.784-2.035 0.857-2.99 3.203-2.133 5.239 0.643 1.529 2.127 2.448 3.688 2.448 0.518 0 1.045-0.102 1.551-0.314 2.629-1.108 4.986-2.69 7.004-4.701 2.021-2.013 3.613-4.361 4.727-6.982 1.15-2.711 1.734-5.589 1.734-8.555s-0.584-5.844-1.734-8.558C119.19 88.824 117.599 86.476 115.579 84.465z" fill="#49beb7" data-fill-palette-color="accent"></path><path d="M146.647 110.11V89.89c2.472-0.678 4.742-1.972 6.605-3.827 2.838-2.826 4.4-6.585 4.4-10.583 0-3.997-1.563-7.755-4.4-10.584-2.834-2.821-6.6-4.375-10.605-4.375-3.965 0-7.694 1.528-10.518 4.298l-17.612-10.126c0.31-1.207 0.487-2.455 0.487-3.733 0-3.997-1.563-7.755-4.4-10.584-2.834-2.821-6.6-4.375-10.605-4.375-4.004 0-7.77 1.554-10.604 4.376-2.837 2.826-4.399 6.585-4.399 10.583 0 1.278 0.177 2.526 0.486 3.733L67.87 64.818c-2.824-2.769-6.552-4.297-10.518-4.297-4.005 0-7.771 1.554-10.604 4.375-2.838 2.826-4.401 6.585-4.401 10.584 0 4.001 1.563 7.76 4.4 10.583 1.862 1.855 4.133 3.149 6.604 3.827v20.22c-2.472 0.678-4.741 1.971-6.604 3.825-2.838 2.826-4.401 6.585-4.401 10.585 0 3.999 1.563 7.758 4.4 10.583 2.833 2.822 6.6 4.376 10.604 4.376 3.965 0 7.693-1.527 10.518-4.297l17.612 10.126c-0.31 1.206-0.486 2.455-0.486 3.733 0 3.998 1.563 7.757 4.4 10.584 2.834 2.821 6.6 4.375 10.604 4.375 4.006 0 7.771-1.554 10.607-4.377 2.836-2.827 4.398-6.585 4.398-10.582 0-1.278-0.177-2.527-0.487-3.733l17.612-10.126c2.824 2.77 6.553 4.298 10.518 4.298 4.006 0 7.773-1.555 10.604-4.375 2.838-2.827 4.402-6.585 4.402-10.584s-1.564-7.758-4.402-10.584C151.389 112.082 149.12 110.788 146.647 110.11zM147.604 129.437c-2.643 2.635-7.266 2.637-9.916-0.002-1.318-1.313-2.045-3.058-2.045-4.914s0.727-3.603 2.045-4.915c1.324-1.318 3.086-2.044 4.959-2.044 1.875 0 3.637 0.726 4.959 2.044 1.32 1.313 2.047 3.06 2.047 4.915S148.927 128.121 147.604 129.437zM95.04 153.956c-1.318-1.313-2.045-3.06-2.045-4.915 0-1.856 0.727-3.603 2.045-4.915 1.324-1.318 3.086-2.045 4.959-2.045 1.875 0 3.637 0.727 4.959 2.043 1.32 1.315 2.047 3.062 2.047 4.917 0 1.854-0.727 3.601-2.045 4.914C102.315 156.591 97.69 156.594 95.04 153.956zM99.999 134.081c-3.963 0-7.691 1.528-10.518 4.298L71.87 128.254c0.31-1.207 0.487-2.455 0.487-3.733 0-3.999-1.563-7.758-4.401-10.585-1.863-1.854-4.132-3.147-6.604-3.825V89.89c2.472-0.678 4.741-1.972 6.604-3.826 2.838-2.825 4.4-6.584 4.4-10.584 0-1.278-0.177-2.526-0.487-3.733L89.481 61.62c2.824 2.769 6.552 4.297 10.518 4.297 3.964 0 7.692-1.528 10.52-4.297l17.611 10.125c-0.31 1.206-0.486 2.455-0.486 3.733 0 4.001 1.563 7.76 4.4 10.584 1.863 1.854 4.132 3.148 6.604 3.826v20.221c-2.47 0.678-4.74 1.971-6.604 3.825-2.838 2.825-4.4 6.585-4.4 10.585 0 1.278 0.177 2.526 0.486 3.733l-17.611 10.125C107.692 135.609 103.964 134.081 99.999 134.081zM52.393 129.435c-1.319-1.313-2.046-3.059-2.046-4.914 0-1.856 0.727-3.602 2.046-4.915 1.323-1.318 3.085-2.044 4.959-2.044s3.636 0.726 4.959 2.043c1.319 1.313 2.046 3.06 2.046 4.916 0 1.855-0.727 3.602-2.045 4.914C59.663 132.071 55.041 132.073 52.393 129.435zM50.347 75.479c0-1.855 0.727-3.601 2.047-4.915 1.323-1.318 3.084-2.044 4.958-2.044s3.636 0.727 4.959 2.044c1.319 1.313 2.046 3.06 2.046 4.915 0 1.856-0.727 3.602-2.045 4.914-2.648 2.637-7.27 2.639-9.92 0C51.073 79.081 50.347 77.336 50.347 75.479zM99.999 44c1.875 0 3.637 0.727 4.959 2.043 1.32 1.315 2.047 3.062 2.047 4.916 0 1.855-0.727 3.602-2.045 4.915-2.645 2.637-7.27 2.638-9.92 0.001-1.318-1.313-2.045-3.06-2.045-4.916 0-1.855 0.727-3.602 2.045-4.914C96.364 44.727 98.126 44 99.999 44zM142.647 68.521c1.875 0 3.637 0.727 4.959 2.043 1.32 1.315 2.047 3.062 2.047 4.916 0 1.855-0.727 3.602-2.045 4.914-2.646 2.637-7.27 2.639-9.92 0-1.318-1.313-2.045-3.058-2.045-4.914s0.727-3.602 2.045-4.914C139.013 69.247 140.774 68.521 142.647 68.521z" fill="#49beb7" data-fill-palette-color="accent"></path></g></svg></g></svg></g></svg></g><defs></defs></svg><rect width="395.52" height="161.57977213906216" fill="none" stroke="none" visibility="hidden"></rect></g></svg></g></svg>